Coordinates
version=1
nRows=26
nColumns=24
inDegrees=yes

Units are S.I. units (second, meters, Newtons, ...)
Angles are in degrees.

endheader
time	pelvis_tilt	pelvis_list	pelvis_rotation	pelvis_tx	pelvis_ty	pelvis_tz	hip_flexion_r	hip_adduction_r	hip_rotation_r	knee_angle_r	ankle_angle_r	subtalar_angle_r	mtp_angle_r	hip_flexion_l	hip_adduction_l	hip_rotation_l	knee_angle_l	ankle_angle_l	subtalar_angle_l	mtp_angle_l	lumbar_extension	lumbar_bending	lumbar_rotation
      1.32000000	     75.43546695	      0.63840425	     -1.35798632	      0.54219468	      0.96867877	     -0.29553073	     -5.78135497	    -18.61104268	     -7.85378598	    -65.57479858	    -28.54652692	      0.00000000	      0.00000000	      1.44316454	     -6.57159533	      8.82794148	    -13.43779645	    -33.92802720	      0.00000000	      0.00000000	      0.00000000	      0.00000000	      0.00000000
      1.33000000	     75.82723012	      0.53372483	     -1.38765314	      0.54228051	      0.96909546	     -0.29551144	     -6.34801374	    -18.55711782	     -7.92560208	    -65.43426173	    -28.53135190	      0.00000000	      0.00000000	      0.20113595	     -6.73205954	      7.66902161	    -14.74865053	    -32.83936483	      0.00000000	      0.00000000	      0.00000000	      0.00000000	      0.00000000
      1.34000000	     76.21206495	      0.42705521	     -1.41026247	      0.54242800	      0.96946256	     -0.29556078	     -6.90828783	    -18.51548917	     -8.01319701	    -65.29891150	    -28.51596638	      0.00000000	      0.00000000	     -1.08874486	     -6.89031521	      6.57948528	    -16.14846815	    -32.02257877	      0.00000000	      0.00000000	      0.00000000	      0.00000000	      0.00000000
      1.35000000	     76.56323802	      0.33496911	     -1.42105230	      0.54267982	      0.96979423	     -0.29566736	     -7.43174450	    -18.50097566	     -8.11076326	    -65.17944100	    -28.49613141	      0.00000000	      0.00000000	     -2.38290250	     -7.01845759	      5.63125623	    -17.66062788	    -31.48204004	      0.00000000	      0.00000000	      0.00000000	      0.00000000	      0.00000000
      1.36000000	     76.85657590	      0.27367502	     -1.41957866	      0.54302728	      0.97009036	     -0.29581542	     -7.89167875	    -18.52684330	     -8.20781011	    -65.08490951	    -28.46746214	      0.00000000	      0.00000000	     -3.63391343	     -7.08755215	      4.88718733	    -19.31438763	    -31.23032031	      0.00000000	      0.00000000	      0.00000000	      0.00000000	      0.00000000
      1.37000000	     77.07328263	      0.25523478	     -1.41215743	      0.54342419	      0.97034810	     -0.29600985	     -8.26551265	    -18.60136896	     -8.29093524	    -65.01932729	    -28.42828309	      0.00000000	      0.00000000	     -4.79512632	     -7.07210328	      4.39263203	    -21.13733565	    -31.30420343	      0.00000000	      0.00000000	      0.00000000	      0.00000000	      0.00000000
      1.38000000	     77.20102899	      0.28323067	     -1.41082306	      0.54384989	      0.97059406	     -0.29625742	     -8.53367945	    -18.72501014	     -8.34693150	    -64.97922287	    -28.38255245	      0.00000000	      0.00000000	     -5.82752085	     -6.95408153	      4.16659084	    -23.14785836	    -31.77166715	      0.00000000	      0.00000000	      0.00000000	      0.00000000	      0.00000000
      1.39000000	     77.23195136	      0.34993773	     -1.42956083	      0.54431910	      0.97087757	     -0.29655227	     -8.68094246	    -18.88877810	     -8.36554869	    -64.95516479	    -28.34190772	      0.00000000	      0.00000000	     -6.70560587	     -6.72685736	      4.19446161	    -25.34890992	    -32.72480744	      0.00000000	      0.00000000	      0.00000000	      0.00000000	      0.00000000
      1.40000000	     77.16190646	      0.43629721	     -1.47949614	      0.54484449	      0.97124200	     -0.29688228	     -8.70002856	    -19.07464302	     -8.34075640	    -64.93658096	    -28.32587076	      0.00000000	      0.00000000	     -7.41791112	     -6.39844039	      4.42543626	    -27.72256213	    -34.25687826	      0.00000000	      0.00000000	      0.00000000	      0.00000000	      0.00000000
      1.41000000	     76.99314197	      0.51572562	     -1.56422930	      0.54543777	      0.97169881	     -0.29723542	     -8.59380274	    -19.25849019	     -8.27055770	    -64.91594814	    -28.35954418	      0.00000000	      0.00000000	     -7.96338192	     -5.99311819	      4.77707935	    -30.22670719	    -36.42672166	      0.00000000	      0.00000000	      0.00000000	      0.00000000	      0.00000000
      1.42000000	     76.73551448	      0.56241915	     -1.67759829	      0.54613130	      0.97220103	     -0.29761776	     -8.37511048	    -19.41503002	     -8.15590476	    -64.89003991	    -28.46873367	      0.00000000	      0.00000000	     -8.34877460	     -5.55146233	      5.14799833	    -32.79668282	    -39.21952452	      0.00000000	      0.00000000	      0.00000000	      0.00000000	      0.00000000
      1.43000000	     76.40411357	      0.55984143	     -1.80524778	      0.54696880	      0.97266848	     -0.29805016	     -8.06465340	    -19.52351914	     -7.99972602	    -64.85800227	    -28.67304802	      0.00000000	      0.00000000	     -8.58888851	     -5.12650966	      5.43659034	    -35.35229615	    -42.51681938	      0.00000000	      0.00000000	      0.00000000	      0.00000000	      0.00000000
      1.44000000	     76.01563000	      0.50343996	     -1.92914424	      0.54796979	      0.97306126	     -0.29851786	     -7.68723327	    -19.57281717	     -7.80738920	    -64.81763883	    -28.97832687	      0.00000000	      0.00000000	     -8.70786876	     -4.77392080	      5.56088289	    -37.80746460	    -46.08885470	      0.00000000	      0.00000000	      0.00000000	      0.00000000	      0.00000000
      1.45000000	     75.58518360	      0.39788391	     -2.03465233	      0.54908806	      0.97341200	     -0.29894336	     -7.26890387	    -19.56342735	     -7.58936347	    -64.76298786	    -29.37086737	      0.00000000	      0.00000000	     -8.73845483	     -4.53893892	      5.47386782	    -40.07874477	    -49.61752937	      0.00000000	      0.00000000	      0.00000000	      0.00000000	      0.00000000
      1.46000000	     75.12550574	      0.25326278	     -2.11863209	      0.55022338	      0.97379096	     -0.29923837	     -6.83657684	    -19.50509750	     -7.36516831	    -64.68495358	    -29.81644133	      0.00000000	      0.00000000	     -8.71696643	     -4.44576240	      5.17004981	    -42.09128725	    -52.74872245	      0.00000000	      0.00000000	      0.00000000	      0.00000000	      0.00000000
      1.47000000	     74.64916253	      0.08291616	     -2.19257998	      0.55130791	      0.97424657	     -0.29939337	     -6.41826810	    -19.41226371	     -7.16513185	    -64.57390686	    -30.26600056	      0.00000000	      0.00000000	     -8.67585888	     -4.49389089	      4.68129213	    -43.78414448	    -55.16210950	      0.00000000	      0.00000000	      0.00000000	      0.00000000	      0.00000000
      1.48000000	     74.17138495	     -0.09845643	     -2.27386753	      0.55235548	      0.97479005	     -0.29946966	     -6.04133161	    -19.30240086	     -7.02557284	    -64.42229326	    -30.66737032	      0.00000000	      0.00000000	     -8.63851820	     -4.66281212	      4.06362410	    -45.11753811	    -56.63892632	      0.00000000	      0.00000000	      0.00000000	      0.00000000	      0.00000000
      1.49000000	     73.71026023	     -0.27711850	     -2.36923413	      0.55340009	      0.97542638	     -0.29948956	     -5.72937677	    -19.19703512	     -6.97867278	    -64.22706617	    -30.97891651	      0.00000000	      0.00000000	     -8.61788141	     -4.92159654	      3.38024038	    -46.08089135	    -57.10737123	      0.00000000	      0.00000000	      0.00000000	      0.00000000	      0.00000000
      1.50000000	     73.28404031	     -0.44038574	     -2.46589552	      0.55441864	      0.97614278	     -0.29942696	     -5.50082743	    -19.11909957	     -7.04443866	    -63.99257291	    -31.17954429	      0.00000000	      0.00000000	     -8.61582530	     -5.23793694	      2.68753111	    -46.69636847	    -56.65207856	      0.00000000	      0.00000000	      0.00000000	      0.00000000	      0.00000000
      1.51000000	     72.90919926	     -0.57609832	     -2.53702667	      0.55534233	      0.97688540	     -0.29929751	     -5.36891441	    -19.08665383	     -7.22814896	    -63.73234164	    -31.27155626	      0.00000000	      0.00000000	     -8.62078766	     -5.58346673	      2.02896446	    -47.01348062	    -55.48560688	      0.00000000	      0.00000000	      0.00000000	      0.00000000	      0.00000000
      1.52000000	     72.59986407	     -0.67507123	     -2.55480466	      0.55612579	      0.97759065	     -0.29918199	     -5.34072098	    -19.10845945	     -7.52114630	    -63.46771008	    -31.27663245	      0.00000000	      0.00000000	     -8.60685570	     -5.93506948	      1.43646669	    -47.09604179	    -53.89184366	      0.00000000	      0.00000000	      0.00000000	      0.00000000	      0.00000000
      1.53000000	     72.36543202	     -0.73444243	     -2.50191681	      0.55677822	      0.97821169	     -0.29916638	     -5.41432318	    -19.18324254	     -7.90303461	    -63.22334889	    -31.22756278	      0.00000000	      0.00000000	     -8.53992330	     -6.27379932	      0.93491036	    -47.00773007	    -52.15918466	      0.00000000	      0.00000000	      0.00000000	      0.00000000	      0.00000000
      1.54000000	     72.20698927	     -0.75791983	     -2.37661130	      0.55732183	      0.97871027	     -0.29928015	     -5.57530725	    -19.30142997	     -8.34435717	    -63.02166947	    -31.15895577	      0.00000000	      0.00000000	     -8.39017714	     -6.58397994	      0.54546199	    -46.80168657	    -50.52253451	      0.00000000	      0.00000000	      0.00000000	      0.00000000	      0.00000000
      1.55000000	     72.11713434	     -0.75275925	     -2.19129097	      0.55774807	      0.97905870	     -0.29949270	     -5.79543396	    -19.44787226	     -8.80948127	    -62.87869390	    -31.09952920	      0.00000000	      0.00000000	     -8.14343733	     -6.85371597	      0.28592042	    -46.51522994	    -49.12795661	      0.00000000	      0.00000000	      0.00000000	      0.00000000	      0.00000000
      1.56000000	     72.08446809	     -0.72678907	     -1.96729339	      0.55803249	      0.97924863	     -0.29975776	     -6.03641074	    -19.60460579	     -9.25991656	    -62.80309605	    -31.06748421	      0.00000000	      0.00000000	     -7.80482557	     -7.07562924	      0.16828693	    -46.16826503	    -48.02490197	      0.00000000	      0.00000000	      0.00000000	      0.00000000	      0.00000000
      1.57000000	     72.09847902	     -0.68783666	     -1.72876236	      0.55816700	      0.97928629	     -0.30004932	     -6.25945055	    -19.75361703	     -9.65812636	    -62.79817265	    -31.06933223	      0.00000000	      0.00000000	     -7.39456691	     -7.24659380	      0.19538719	    -45.76478928	    -47.18205845	      0.00000000	      0.00000000	      0.00000000	      0.00000000	      0.00000000
